<?xml version="1.0" standalone="no"?>
<!DOCTYPE svg PUBLIC "-//W3C//DTD SVG 20010904//EN"
 "http://www.w3.org/TR/2001/REC-SVG-20010904/DTD/svg10.dtd">
<svg version="1.0" xmlns="http://www.w3.org/2000/svg"
 width="864.000000pt" height="864.000000pt" viewBox="0 0 864.000000 864.000000"
 preserveAspectRatio="xMidYMid meet">
<metadata>
Created by potrace 1.11, written by Peter Selinger 2001-2013
</metadata>
<g transform="translate(0.000000,864.000000) scale(0.100000,-0.100000)"
fill="#000000" stroke="none">
<path d="M5198 8635 c-2 -2 -42 -6 -88 -9 -47 -2 -85 -5 -85 -5 0 -1 -22 -4
-50 -6 -90 -8 -145 -16 -260 -37 -33 -6 -67 -12 -75 -13 -44 -5 -286 -63 -341
-81 -25 -8 -57 -17 -70 -20 -32 -7 -41 -10 -61 -18 -9 -4 -22 -9 -30 -10 -7
-2 -26 -8 -41 -14 -16 -7 -31 -12 -35 -12 -9 0 -224 -82 -277 -106 -22 -10
-42 -18 -45 -19 -32 -7 -350 -169 -445 -227 -16 -10 -39 -22 -50 -28 -25 -13
-186 -116 -202 -130 -7 -5 -16 -10 -22 -10 -5 0 -11 -3 -13 -8 -1 -4 -34 -30
-73 -57 -38 -27 -72 -52 -75 -55 -3 -3 -21 -17 -40 -30 -35 -25 -62 -46 -84
-65 -6 -6 -40 -34 -75 -63 -167 -138 -424 -398 -557 -562 -16 -19 -31 -37 -34
-40 -14 -12 -170 -219 -170 -225 0 -3 -6 -13 -13 -20 -6 -8 -17 -20 -22 -27
-32 -40 -185 -285 -185 -295 0 -4 -6 -14 -14 -22 -7 -9 -41 -70 -76 -136 -34
-66 -67 -126 -72 -132 -6 -7 -8 -13 -4 -13 3 0 -7 -26 -23 -57 -27 -55 -53
-112 -56 -123 -1 -3 -9 -22 -18 -44 -9 -21 -17 -41 -17 -43 0 -3 -7 -19 -15
-36 -15 -34 -84 -222 -90 -247 -15 -66 -52 -176 -60 -182 -5 -4 -75 -8 -155
-8 -80 0 -152 -1 -160 -1 -8 0 -105 0 -215 1 -110 1 -237 1 -281 0 l-82 0 -32
-69 c-18 -38 -32 -73 -31 -77 2 -4 -1 -10 -6 -13 -5 -3 -20 -31 -32 -61 -13
-30 -34 -77 -46 -105 -49 -110 -80 -180 -81 -185 -1 -5 -49 -113 -79 -175 -13
-28 -13 -30 8 -36 12 -3 31 -2 43 2 11 4 27 4 34 -1 7 -4 25 -4 41 0 15 5 30
6 32 3 8 -8 70 -9 98 -2 15 4 32 3 40 -1 7 -5 21 -4 30 1 12 6 20 5 24 -1 5
-8 11 -8 19 -1 7 6 15 9 17 6 3 -2 36 -4 74 -4 88 -1 102 -1 118 -2 6 0 26 0
42 0 17 1 44 0 60 -2 17 -1 42 1 56 4 15 4 32 3 40 -1 7 -5 21 -4 30 1 12 6
20 5 24 -1 5 -8 11 -8 19 -1 7 6 15 9 17 6 3 -2 36 -4 74 -4 39 -1 79 -1 90
-1 57 -1 55 1 48 -43 -9 -55 -9 -557 0 -625 l6 -52 -42 0 c-55 0 -72 0 -130 1
-27 0 -51 -2 -53 -4 -3 -3 -21 -1 -40 3 -18 4 -34 4 -34 -1 0 -4 -10 -5 -22 0
-13 4 -35 5 -50 0 -16 -4 -28 -4 -28 1 0 4 -15 5 -32 1 -18 -3 -49 -5 -68 -3
-19 1 -46 4 -60 5 -14 1 -37 -1 -51 -4 -15 -4 -32 -3 -40 1 -7 5 -21 4 -30 -1
-12 -6 -20 -5 -24 1 -4 6 -12 7 -18 3 -6 -4 -22 -7 -35 -7 -22 -1 -32 -19 -90
-151 -37 -82 -71 -153 -77 -157 -5 -4 -7 -8 -3 -8 4 0 -13 -43 -37 -95 -24
-53 -44 -96 -44 -98 0 -2 -54 -126 -76 -172 -7 -16 -13 -31 -11 -32 1 -2 156
-3 341 -2 11 0 144 -1 295 -1 152 -1 280 -1 285 0 6 2 74 2 152 1 l142 -1 26
-87 c35 -117 84 -260 102 -302 8 -18 16 -39 18 -45 2 -13 15 -45 45 -114 12
-26 25 -56 29 -67 21 -52 185 -372 199 -387 8 -10 11 -18 7 -18 -4 0 -1 -8 7
-17 8 -10 18 -25 22 -33 8 -17 17 -32 70 -115 75 -117 119 -180 128 -183 4 -2
8 -8 8 -14 0 -8 43 -71 60 -88 3 -3 27 -34 55 -70 27 -36 52 -67 55 -70 3 -3
21 -24 39 -48 94 -120 422 -451 548 -552 75 -60 129 -106 131 -112 2 -5 8 -8
13 -8 5 0 18 -8 30 -18 11 -9 29 -24 39 -32 54 -45 330 -227 410 -271 25 -13
50 -29 56 -34 6 -6 31 -19 55 -30 24 -11 46 -22 49 -25 5 -7 179 -92 265 -130
28 -12 74 -33 103 -46 29 -13 56 -24 60 -24 4 0 36 -12 72 -26 36 -15 74 -30
85 -34 11 -5 41 -14 68 -20 26 -7 50 -17 53 -21 3 -5 13 -9 22 -9 14 0 126
-31 172 -48 8 -3 24 -6 35 -7 11 -1 31 -6 45 -10 34 -12 41 -14 170 -41 91
-19 215 -39 305 -49 28 -4 66 -8 85 -11 146 -19 599 -26 765 -10 50 4 108 10
130 12 68 6 128 14 185 24 30 6 69 12 85 15 27 5 201 41 248 51 42 10 58 14
162 44 61 17 117 33 125 35 44 12 256 89 305 110 50 22 105 44 110 44 3 1 32
14 65 31 33 17 60 27 60 23 0 -5 4 -3 8 3 4 6 48 31 97 54 50 23 93 48 97 54
4 6 8 7 8 2 0 -5 8 -2 18 6 9 8 33 22 52 32 19 9 64 34 99 56 34 22 65 40 67
40 5 0 218 145 283 193 85 63 245 192 301 244 l50 46 0 516 0 516 -28 -32
c-15 -17 -36 -43 -47 -57 -127 -162 -295 -334 -505 -517 -14 -11 -41 -33 -60
-48 -19 -14 -44 -34 -55 -45 -11 -10 -38 -30 -60 -44 -22 -14 -42 -28 -45 -32
-3 -3 -48 -34 -100 -68 -52 -34 -100 -66 -107 -72 -7 -5 -15 -10 -19 -10 -3 0
-18 -8 -32 -19 -65 -46 -450 -233 -479 -233 -4 0 -14 -5 -21 -11 -28 -23 -406
-143 -512 -163 -14 -2 -36 -7 -50 -10 -14 -4 -34 -8 -45 -10 -11 -2 -40 -8
-65 -13 -25 -5 -63 -12 -85 -15 -22 -3 -49 -7 -60 -10 -21 -4 -84 -11 -200
-23 -147 -14 -637 -7 -734 12 -9 1 -36 6 -61 9 -25 3 -54 8 -65 10 -11 2 -52
9 -92 16 -89 15 -95 16 -113 23 -8 3 -28 8 -45 11 -29 5 -54 10 -92 21 -45 12
-150 42 -163 47 -19 7 -103 33 -110 34 -3 0 -22 8 -44 17 -21 9 -44 17 -50 17
-6 0 -22 7 -34 16 -12 8 -22 13 -22 10 0 -7 -142 53 -155 65 -5 5 -17 9 -27 9
-10 0 -18 5 -18 10 0 6 -8 10 -18 10 -10 0 -22 4 -27 9 -6 4 -48 28 -95 52
-96 49 -221 123 -335 198 -74 50 -265 189 -275 202 -3 3 -43 39 -90 79 -126
108 -324 312 -427 440 -15 19 -30 37 -33 40 -3 3 -17 21 -30 40 -13 19 -27 37
-30 40 -9 7 -162 229 -176 255 -6 11 -20 36 -31 56 -12 20 -27 47 -35 60 -7
13 -16 26 -19 29 -12 11 -169 338 -169 354 0 9 -4 16 -10 16 -5 0 -10 6 -10
14 0 11 -22 74 -51 141 -4 11 -15 40 -23 65 -8 25 -17 53 -21 62 -6 16 5 17
132 18 76 0 145 1 153 1 60 0 609 -1 750 -2 96 -1 181 -1 188 0 6 1 18 1 25 1
19 1 550 0 747 -1 96 -1 181 -1 188 0 26 2 -14 2 932 0 184 -1 341 0 348 0 6
1 18 1 25 1 19 1 550 0 747 -1 96 -1 181 -1 188 0 22 2 379 3 430 2 12 0 22 5
22 12 0 6 13 40 30 75 16 34 29 65 30 67 0 3 16 39 35 81 19 41 35 77 35 79 0
2 18 43 41 92 23 48 42 93 44 98 1 6 13 33 26 60 13 28 24 52 24 55 1 3 9 22
18 42 25 56 22 63 -23 63 -22 0 -40 -3 -40 -6 0 -4 -18 -3 -39 1 -22 4 -45 3
-52 -1 -8 -4 -19 -3 -25 2 -8 7 -14 6 -19 -1 -3 -6 -10 -8 -14 -6 -4 3 -39 5
-77 5 -75 1 -85 1 -157 2 -27 0 -51 -2 -53 -4 -3 -3 -21 -1 -40 3 -18 4 -34 4
-34 -1 0 -4 -10 -5 -22 0 -13 4 -35 5 -50 0 -16 -4 -28 -4 -28 1 0 4 -15 5
-32 1 -18 -3 -49 -5 -68 -3 -19 1 -46 4 -60 5 -14 1 -37 -1 -51 -4 -15 -4 -32
-3 -40 1 -7 5 -21 4 -30 -1 -12 -6 -20 -5 -24 1 -4 6 -11 7 -17 4 -10 -6 -80
-7 -153 -1 -16 1 -42 -1 -56 -4 -15 -4 -32 -3 -40 1 -7 5 -21 4 -30 -1 -12 -6
-20 -5 -25 2 -4 6 -10 7 -15 2 -5 -5 -31 -7 -57 -3 -26 3 -59 3 -72 0 -14 -4
-40 -3 -57 1 -18 4 -33 3 -33 -2 0 -4 -10 -5 -22 0 -13 4 -35 5 -50 0 -17 -5
-28 -4 -28 2 0 6 -5 7 -11 4 -6 -4 -36 -6 -67 -5 -31 1 -66 1 -77 0 -11 -1
-26 -1 -32 -1 -31 2 -40 2 -68 2 -16 -1 -43 0 -60 2 -16 1 -42 -1 -56 -4 -15
-4 -32 -3 -40 1 -7 5 -21 4 -30 -1 -12 -6 -20 -5 -24 1 -5 8 -11 8 -19 1 -7
-6 -15 -9 -17 -6 -3 2 -36 4 -74 4 -76 1 -86 1 -158 2 -27 0 -51 -2 -53 -4 -3
-3 -21 -1 -40 3 -18 4 -34 4 -34 -1 0 -4 -10 -5 -22 0 -13 4 -35 5 -50 0 -16
-4 -28 -4 -28 1 0 4 -15 5 -32 1 -18 -3 -49 -5 -68 -3 -19 1 -46 4 -60 5 -14
1 -37 -1 -51 -4 -15 -4 -32 -3 -40 1 -7 5 -21 4 -30 -1 -12 -6 -20 -5 -24 1
-4 6 -11 7 -17 4 -10 -6 -80 -7 -153 -1 -16 1 -42 -1 -56 -4 -15 -4 -32 -3
-40 1 -7 5 -20 5 -29 0 -11 -6 -21 -5 -27 1 -6 6 -13 7 -16 2 -3 -5 -28 -7
-54 -3 -27 3 -60 3 -73 0 -14 -4 -40 -3 -57 1 -18 4 -33 3 -33 -2 0 -4 -10 -5
-22 0 -13 4 -35 5 -50 0 -17 -5 -28 -4 -28 2 0 6 -5 7 -11 4 -6 -4 -36 -6 -67
-5 -31 1 -66 1 -77 0 -11 -1 -26 -1 -32 -1 -31 2 -40 2 -68 2 -16 -1 -43 0
-60 2 -16 1 -42 -1 -56 -4 -15 -4 -32 -3 -40 1 -7 5 -21 4 -30 -1 -12 -6 -20
-5 -24 1 -5 8 -11 8 -19 1 -7 -6 -15 -9 -17 -6 -3 2 -36 4 -74 4 -76 1 -86 1
-158 2 -27 0 -51 -2 -53 -4 -3 -3 -21 -1 -40 3 -18 4 -34 4 -34 -1 0 -4 -10
-5 -22 0 -13 4 -35 5 -50 0 -16 -4 -28 -4 -28 1 0 4 -15 5 -32 1 -18 -3 -49
-5 -68 -3 -19 1 -46 4 -60 5 -14 1 -37 -1 -51 -4 -15 -4 -32 -3 -40 1 -7 5
-21 4 -30 -1 -12 -6 -20 -5 -24 1 -4 6 -11 7 -17 4 -10 -6 -80 -7 -153 -1 -16
1 -42 -1 -56 -4 -15 -4 -32 -3 -40 1 -7 5 -20 5 -29 0 -11 -6 -21 -5 -27 1 -6
6 -13 7 -16 2 -3 -5 -31 -6 -61 -3 -31 3 -62 2 -70 -2 -33 -19 -40 41 -40 352
-1 264 5 355 23 373 6 6 11 7 11 2 0 -6 30 -9 67 -8 82 3 103 3 123 3 8 -1 29
-1 45 -1 17 1 44 0 60 -2 17 -1 42 1 56 4 15 4 32 3 40 -1 7 -5 21 -4 30 1 12
6 20 5 24 -1 5 -8 11 -8 19 -1 7 6 15 9 17 6 3 -2 36 -4 74 -4 76 -1 86 -1
158 -2 27 0 51 2 53 4 3 3 21 1 40 -3 18 -4 34 -4 34 1 0 4 10 5 22 0 13 -4
35 -5 50 0 16 4 28 4 28 -1 0 -4 15 -5 33 -1 18 5 41 5 52 1 11 -4 31 -4 45 0
14 4 40 3 58 -1 17 -4 32 -3 32 2 0 4 10 5 22 0 13 -4 35 -5 50 0 16 4 28 4
28 -1 0 -4 15 -5 33 -1 18 5 41 5 52 1 11 -4 31 -4 45 0 14 4 40 3 58 -1 17
-4 32 -3 32 2 0 4 10 5 22 0 13 -4 35 -5 50 0 16 4 28 4 28 -1 0 -4 15 -5 33
-1 18 5 41 5 52 1 11 -4 31 -4 45 0 14 4 40 3 58 -1 17 -4 32 -3 32 2 0 4 10
5 22 0 13 -4 35 -5 50 0 17 5 28 4 28 -2 0 -6 5 -7 11 -4 6 4 36 6 67 5 31 -1
66 -1 77 0 11 1 26 1 33 1 30 -2 39 -2 67 -2 17 1 44 0 60 -2 17 -1 42 1 56 4
15 4 32 3 40 -1 7 -5 21 -4 30 1 12 6 20 5 24 -1 5 -8 11 -8 19 -1 7 6 15 9
17 6 3 -2 36 -4 74 -4 88 -1 102 -1 118 -2 6 0 26 0 42 0 17 1 44 0 60 -2 17
-1 42 1 56 4 15 4 32 3 40 -1 7 -5 21 -4 30 1 12 6 20 5 24 -1 5 -8 11 -8 19
-1 7 6 15 9 17 6 3 -2 36 -4 74 -4 88 -1 102 -1 118 -2 6 0 26 0 42 0 17 1 44
0 60 -2 17 -1 42 1 56 4 15 4 32 3 40 -1 7 -5 21 -4 30 1 12 6 20 5 24 -1 5
-8 11 -8 19 -1 7 6 15 9 17 6 3 -2 36 -4 74 -4 88 -1 102 -1 118 -2 6 0 26 0
42 0 17 1 44 0 60 -2 17 -1 42 1 56 4 15 4 32 3 40 -1 7 -5 21 -4 30 1 12 6
20 5 24 -1 5 -8 11 -8 19 -1 7 6 15 9 17 6 3 -2 36 -4 74 -4 88 -1 102 -1 118
-2 6 0 26 0 42 0 17 1 44 0 60 -2 17 -1 42 1 56 4 15 4 32 3 40 -1 7 -5 21 -4
30 1 12 6 20 5 24 -1 5 -8 11 -8 19 -1 7 6 15 9 17 6 3 -2 36 -4 74 -4 76 -1
86 -1 158 -2 27 0 51 2 53 4 3 3 21 1 40 -3 18 -4 34 -4 34 1 0 4 10 5 22 0
13 -4 35 -5 50 0 16 4 28 4 28 -1 0 -4 15 -5 33 -1 18 5 41 5 52 1 11 -4 31
-4 45 0 14 4 40 3 58 -1 17 -4 32 -3 32 2 0 4 10 5 22 0 13 -4 35 -5 50 0 16
4 28 4 28 -1 0 -4 15 -5 33 -1 18 5 41 5 52 1 11 -4 31 -4 45 0 14 4 40 3 58
-1 17 -4 32 -3 32 2 0 4 10 5 22 0 13 -4 35 -5 50 0 16 4 28 4 28 -1 0 -4 15
-5 33 -1 18 5 41 5 52 1 11 -4 32 -4 46 0 15 4 32 4 39 0 27 -17 58 12 86 79
16 36 29 68 30 71 0 5 26 61 90 198 19 40 34 75 34 77 0 3 14 35 31 72 17 38
35 77 39 88 5 11 18 40 29 65 32 75 35 72 -59 70 -106 -1 -68 -1 -392 0 -153
1 -282 -1 -287 -4 -5 -4 -12 -2 -16 4 -4 7 -12 7 -24 0 -10 -5 -21 -7 -24 -4
-3 3 -130 5 -284 5 -153 0 -438 -1 -633 0 -195 0 -425 0 -510 -1 -85 0 -161
-1 -167 -1 -47 0 -466 0 -480 0 -67 0 -1111 -1 -1123 0 -154 3 -572 1 -579 -3
-5 -4 -12 -2 -16 4 -4 7 -12 7 -24 0 -10 -5 -21 -7 -24 -4 -4 5 -131 5 -582 3
-22 0 -351 0 -370 0 -11 0 -61 0 -112 0 l-91 0 19 63 c10 35 23 72 28 83 5 11
24 58 41 105 18 47 53 127 77 178 23 52 43 98 43 102 0 5 3 10 8 12 4 2 23 35
43 73 57 111 73 140 82 143 4 2 7 8 7 13 0 8 146 233 172 264 9 11 59 76 91
119 102 134 353 392 502 516 50 41 92 78 93 83 2 4 10 7 17 7 7 0 15 4 17 8
11 30 345 248 498 326 41 22 80 42 85 46 15 11 221 104 255 115 3 1 19 7 35
14 17 6 62 23 100 37 39 14 87 32 108 40 20 8 37 12 37 9 0 -3 14 1 30 10 17
9 30 13 30 11 0 -3 18 1 40 9 22 8 40 12 40 8 0 -3 6 -1 13 5 6 6 30 14 52 18
22 5 42 9 45 9 66 14 120 25 140 29 14 2 36 7 50 10 14 3 43 8 65 12 22 3 54
7 70 10 30 4 56 7 195 21 187 19 654 6 820 -23 14 -2 48 -7 75 -9 28 -3 70
-10 95 -16 45 -10 74 -16 119 -25 13 -3 51 -12 85 -20 34 -8 72 -17 85 -20 14
-3 28 -7 33 -10 4 -3 18 -7 30 -10 13 -3 28 -6 33 -8 6 -2 24 -6 40 -11 17 -4
35 -11 40 -15 6 -4 24 -10 40 -14 86 -21 396 -158 535 -237 30 -17 75 -42 99
-56 49 -27 253 -162 261 -172 3 -4 21 -18 40 -31 181 -123 467 -401 668 -647
42 -51 78 -93 82 -93 3 0 14 19 24 43 10 23 36 79 57 125 22 46 39 85 39 87 0
2 14 34 32 72 18 37 33 70 33 73 1 3 10 23 20 45 10 22 19 42 20 45 1 3 12 28
25 55 13 28 24 52 25 55 1 4 31 71 42 92 10 21 -336 357 -517 500 -92 74 -218
168 -224 168 -3 0 -14 6 -23 14 -42 34 -113 86 -113 82 0 -3 -37 20 -82 50
-45 30 -88 54 -95 54 -7 0 -13 5 -13 10 0 6 -5 10 -10 10 -6 0 -28 11 -50 25
-160 101 -639 306 -840 361 -167 45 -361 95 -384 99 -70 11 -92 15 -116 21
-14 3 -41 8 -60 10 -19 2 -46 6 -60 9 -14 3 -47 8 -75 11 -27 3 -68 7 -90 10
-22 3 -67 7 -100 10 -80 6 -562 14 -567 9z"/>
</g>
</svg>
